<?xml version="1.0" standalone="no"?>
<!DOCTYPE svg PUBLIC "-//W3C//DTD SVG 20010904//EN"
 "http://www.w3.org/TR/2001/REC-SVG-20010904/DTD/svg10.dtd">
<svg version="1.0" xmlns="http://www.w3.org/2000/svg"
 width="128.000000pt" height="128.000000pt" viewBox="0 0 128.000000 128.000000"
 preserveAspectRatio="xMidYMid meet">
<metadata>
Created by potrace 1.11, written by Peter Selinger 2001-2013
</metadata>
<g transform="translate(0.000000,128.000000) scale(0.100000,-0.100000)"
fill="#000000" stroke="none">
<path d="M0 640 l0 -640 640 0 640 0 0 640 0 640 -640 0 -640 0 0 -640z m327
50 l36 -79 34 77 c18 42 33 78 33 79 0 2 13 3 29 3 34 0 36 -8 47 -172 l6
-108 -31 0 -31 0 -1 63 c-1 100 -11 110 -40 38 -21 -54 -27 -61 -48 -59 -19 2
-30 16 -51 67 l-27 64 -8 -87 -7 -86 -30 0 -30 0 6 70 c3 39 9 102 12 140 6
70 6 70 36 70 27 0 32 -6 65 -80z m342 -1 l37 -80 23 58 c34 83 48 103 75 103
30 0 33 -12 42 -162 l7 -118 -32 0 -31 0 0 80 c0 44 -3 80 -8 80 -4 0 -18 -27
-31 -60 -21 -54 -27 -61 -49 -58 -20 2 -29 15 -51 68 l-26 64 -2 -54 c-5 -100
-11 -120 -38 -120 -13 0 -26 3 -28 8 -5 8 11 241 18 260 2 6 16 12 30 12 23 0
31 -10 64 -81z m341 -14 c0 -32 2 -35 30 -35 25 0 30 -4 30 -25 0 -21 -5 -25
-29 -25 -27 0 -30 -3 -33 -37 -3 -33 -6 -38 -28 -38 -22 0 -25 5 -28 38 -3 34
-6 37 -33 37 -24 0 -29 4 -29 25 0 21 5 25 30 25 26 0 30 4 30 28 0 35 6 42
37 42 20 0 23 -5 23 -35z"/>
</g>
</svg>
